<?xml version="1.0" standalone="no"?><!DOCTYPE svg PUBLIC "-//W3C//DTD SVG 1.1//EN" "http://www.w3.org/Graphics/SVG/1.1/DTD/svg11.dtd"><svg t="1747280690857" class="icon" viewBox="0 0 1024 1024" version="1.1" xmlns="http://www.w3.org/2000/svg" p-id="38908" width="64" height="64" xmlns:xlink="http://www.w3.org/1999/xlink"><path d="M405.942857 976.457143c-14.628571 0-29.257143-10.971429-36.571428-25.6-18.285714-62.171429-47.542857-106.057143-84.114286-135.314286-21.942857-18.285714-54.857143-21.942857-87.771429-25.6-43.885714-7.314286-91.428571-10.971429-117.028571-51.2-40.228571-58.514286-3.657143-135.314286 25.6-197.485714 7.314286-14.628571 14.628571-29.257143 18.285714-40.228572-3.657143-7.314286-25.6-21.942857-32.914286-25.6-18.285714-10.971429-36.571429-21.942857-40.228571-40.228571-3.657143-10.971429 0-25.6 7.314286-32.914286 7.314286-7.314286 18.285714-21.942857 157.257143-95.085714 36.571429-168.228571 157.257143-256 347.428571-256 299.885714 0 413.257143 252.342857 413.257143 413.257143 0 164.571429-131.657143 321.828571-307.2 369.371428 7.314286 14.628571 21.942857 40.228571 62.171428 84.114286 14.628571 14.628571 10.971429 36.571429-3.657142 51.2-14.628571 14.628571-36.571429 10.971429-51.2-3.657143-51.2-58.514286-109.714286-131.657143-73.142858-182.857143 3.657143-7.314286 14.628571-14.628571 21.942858-14.628571 168.228571-32.914286 274.285714-182.857143 274.285714-303.542857 0-131.657143-91.428571-340.114286-340.114286-340.114286-164.571429 0-252.342857 65.828571-277.942857 212.114286-3.657143 10.971429-10.971429 21.942857-18.285714 25.6-58.514286 29.257143-95.085714 47.542857-117.028572 62.171428 29.257143 18.285714 62.171429 51.2 43.885715 102.4-3.657143 14.628571-10.971429 29.257143-18.285715 43.885715-18.285714 40.228571-47.542857 102.4-32.914285 124.342857 10.971429 14.628571 36.571429 18.285714 69.485714 21.942857 40.228571 3.657143 87.771429 10.971429 124.342857 40.228571 47.542857 36.571429 84.114286 95.085714 106.057143 171.885715 7.314286 18.285714-3.657143 40.228571-25.6 43.885714 0 3.657143-3.657143 3.657143-7.314286 3.657143z" fill="#2c2c2c" p-id="38909"></path><path d="M577.828571 599.771429c-29.257143 0-47.542857-14.628571-58.514285-25.6-14.628571-18.285714-21.942857-43.885714-21.942857-80.457143-43.885714-10.971429-76.8-25.6-98.742858-47.542857-32.914286-32.914286-40.228571-80.457143-21.942857-149.942858 7.314286-29.257143 32.914286-65.828571 102.4-80.457142 47.542857-10.971429 65.828571 3.657143 80.457143 18.285714h3.657143c54.857143 0 117.028571 14.628571 128 58.514286 3.657143 0 10.971429 3.657143 21.942857 3.657142 14.628571 0 29.257143 7.314286 43.885714 21.942858 25.6 29.257143 47.542857 87.771429 40.228572 149.942857-7.314286 62.171429-54.857143 95.085714-120.685714 84.114285-14.628571 21.942857-43.885714 40.228571-91.428572 47.542858h-7.314286z m-65.828571-310.857143c-3.657143 0-10.971429 0-14.628571 3.657143-40.228571 7.314286-43.885714 21.942857-43.885715 29.257142-10.971429 36.571429-7.314286 65.828571 3.657143 76.8 10.971429 10.971429 36.571429 25.6 91.428572 32.914286 10.971429 0 18.285714 7.314286 25.6 14.628572 7.314286 7.314286 7.314286 18.285714 7.314285 29.257142-7.314286 43.885714 0 54.857143 0 54.857143h3.657143c36.571429-3.657143 40.228571-18.285714 43.885714-25.6 3.657143-10.971429 7.314286-18.285714 18.285715-21.942857 7.314286-3.657143 18.285714-7.314286 29.257143-3.657143 14.628571 3.657143 25.6 7.314286 36.571428 7.314286 18.285714 0 21.942857-3.657143 21.942857-21.942857 3.657143-43.885714-10.971429-80.457143-21.942857-91.428572-62.171429-3.657143-80.457143-29.257143-84.114286-51.2-7.314286-3.657143-29.257143-10.971429-58.514285-10.971428-32.914286 0-47.542857-10.971429-58.514286-21.942857z" fill="#2c2c2c" p-id="38910"></path><path d="M522.971429 731.428571h-7.314286c-18.285714-3.657143-32.914286-21.942857-29.257143-43.885714 7.314286-29.257143 25.6-51.2 47.542857-84.114286 7.314286-7.314286 14.628571-18.285714 21.942857-29.257142 21.942857-29.257143 65.828571-58.514286 73.142857-62.171429 18.285714-10.971429 40.228571-3.657143 51.2 10.971429 10.971429 18.285714 3.657143 40.228571-10.971428 51.2-21.942857 14.628571-47.542857 32.914286-54.857143 43.885714-7.314286 10.971429-14.628571 21.942857-21.942857 29.257143-18.285714 21.942857-29.257143 40.228571-32.914286 54.857143-3.657143 18.285714-18.285714 29.257143-36.571428 29.257142z" fill="#2c2c2c" p-id="38911"></path></svg>