<?xml version="1.0" standalone="no"?><!DOCTYPE svg PUBLIC "-//W3C//DTD SVG 1.1//EN" "http://www.w3.org/Graphics/SVG/1.1/DTD/svg11.dtd"><svg t="1745476154898" class="icon" viewBox="0 0 1024 1024" version="1.1" xmlns="http://www.w3.org/2000/svg" p-id="77202" xmlns:xlink="http://www.w3.org/1999/xlink" width="200" height="200"><path d="M512 192a320 320 0 1 1 0 640 320 320 0 0 1 0-640z m-90.496 169.13a42.667 42.667 0 0 0-60.373 60.417L451.669 512l-90.538 90.539a42.667 42.667 0 0 0 60.373 60.373l90.453-90.539 90.539 90.539a42.667 42.667 0 0 0 60.373-60.373L572.331 512l90.538-90.453a42.667 42.667 0 1 0-60.373-60.374L512 451.584z" p-id="77203" fill="#333333"></path></svg>