<?xml version="1.0" standalone="no"?><!DOCTYPE svg PUBLIC "-//W3C//DTD SVG 1.1//EN" "http://www.w3.org/Graphics/SVG/1.1/DTD/svg11.dtd"><svg t="1756112418294" class="icon" viewBox="0 0 1024 1024" version="1.1" xmlns="http://www.w3.org/2000/svg" p-id="26216" xmlns:xlink="http://www.w3.org/1999/xlink" width="64" height="64"><path d="M841.088 353.877333l-10.496 24.704a21.418667 21.418667 0 0 1-39.850667 0l-10.496-24.746666a188.458667 188.458667 0 0 0-94.72-98.218667l-32.384-14.762667c-17.493333-7.978667-17.493333-34.090667 0-42.069333l30.592-13.909333a188.672 188.672 0 0 0 96.042667-101.546667l10.794667-26.709333a21.418667 21.418667 0 0 1 40.192 0l10.794666 26.666666a188.714667 188.714667 0 0 0 96 101.546667l30.634667 13.952c17.493333 7.978667 17.493333 34.090667 0 42.069333l-32.426667 14.762667a188.458667 188.458667 0 0 0-94.677333 98.261333zM810.666667 479.274667c29.824 0 58.453333-5.248 85.034666-14.805334 0.213333 4.906667 0.298667 9.813333 0.298667 14.805334 0 192.853333-152.832 349.269333-341.333333 349.269333V981.333333C341.333333 893.994667 42.666667 763.050667 42.666667 479.274667c0-192.896 152.832-349.269333 341.333333-349.269334h170.666667c4.864 0 9.642667 0.085333 14.464 0.298667A267.050667 267.050667 0 0 0 554.666667 217.301333c0 144.64 114.602667 261.973333 256 261.973334z" p-id="26217" fill="#515151"></path></svg>