<?xml version="1.0" standalone="no"?><!DOCTYPE svg PUBLIC "-//W3C//DTD SVG 1.1//EN" "http://www.w3.org/Graphics/SVG/1.1/DTD/svg11.dtd"><svg t="1745291290620" class="icon" viewBox="0 0 1024 1024" version="1.1" xmlns="http://www.w3.org/2000/svg" p-id="10984" xmlns:xlink="http://www.w3.org/1999/xlink" width="200" height="200"><path d="M128 396.8c-19.2 0-32-12.8-32-32C96 217.6 217.6 96 364.8 96h19.2c19.2 0 32 12.8 32 32s-12.8 32-32 32h-19.2C252.8 160 160 252.8 160 364.8c0 16-12.8 32-32 32zM896 396.8c-19.2 0-32-12.8-32-32C864 252.8 771.2 160 659.2 160H640c-19.2 0-32-12.8-32-32s12.8-32 32-32h19.2c147.2 0 268.8 121.6 268.8 268.8 0 16-12.8 32-32 32z" p-id="10985" fill="#e6e6e6"></path><path d="M659.2 928H640c-19.2 0-32-12.8-32-32s12.8-32 32-32h19.2c112 0 204.8-92.8 204.8-204.8 0-19.2 12.8-32 32-32s32 12.8 32 32c0 147.2-121.6 268.8-268.8 268.8zM384 928h-19.2C217.6 928 96 806.4 96 659.2c0-19.2 12.8-32 32-32s32 12.8 32 32c0 112 92.8 204.8 204.8 204.8h19.2c19.2 0 32 12.8 32 32s-16 32-32 32z" p-id="10986" fill="#e6e6e6"></path><path d="M681.6 409.6H352c-19.2 0-32-12.8-32-32s12.8-32 32-32h326.4c19.2 0 32 12.8 32 32s-12.8 32-28.8 32zM672 544H345.6c-19.2 0-32-12.8-32-32s12.8-32 32-32H672c19.2 0 32 12.8 32 32s-16 32-32 32zM531.2 678.4h-185.6c-19.2 0-32-12.8-32-32s12.8-32 32-32h185.6c19.2 0 32 12.8 32 32s-16 32-32 32z" p-id="10987" fill="#e6e6e6"></path></svg>