<?xml version="1.0" standalone="no"?><!DOCTYPE svg PUBLIC "-//W3C//DTD SVG 1.1//EN" "http://www.w3.org/Graphics/SVG/1.1/DTD/svg11.dtd"><svg t="1746692556880" class="icon" viewBox="0 0 1024 1024" version="1.1" xmlns="http://www.w3.org/2000/svg" p-id="2548" xmlns:xlink="http://www.w3.org/1999/xlink" width="64" height="64"><path d="M580.416717 960.043363l6.135744 0c9.038864-6.955412 18.619056-13.752212 27.894304-20.427238 6.600325-4.745071 25.917276-14.608719 21.11797-22.426779-4.830005-7.866155-14.873756-20.09978-20.760836-28.122501-7.100722-9.679453-19.996426-19.263739-7.824199-26.699082 9.228175-5.633301 19.169595-13.82896 28.195156-20.24202 13.668301-9.714246 22.354124-9.776667 11.203156-23.502273-6.725168-8.270361-13.848403-19.140942-20.190855-27.992541-16.910135-23.576975-5.211698-20.996197-52.43421 10.844999-18.497283 12.472056-11.034311 14.163581-24.26873-2.485611-7.019881-8.824993-13.263072-19.208481-20.211321-27.875884-11.181667-13.951757-3.813862-14.116509 6.288217-28.205389 14.740726-20.557198 24.942065-45.499263 30.653137-66.033949 1.706875-6.139837 3.27765-12.862959 4.459568-19.352767 1.139963-6.256494 1.284249-16.675798 2.446725-21.933545 3.110851-14.065344-1.469468-41.519626-1.154289-45.580105 6.007831 1.030469 26.955932 12.432147 53.979402 16.554024 5.098111 0.773619 10.06217 1.258667 15.265682 2.039449 6.083555 0.916882 11.252275 0.25992 16.73515 0.9967 11.045567 1.474584 22.502503-1.1328 33.249265-1.094938 12.96529 0.045025 42.036395-8.94165 56.06183-14.455223 16.207124-6.370081 31.144324-15.35471 45.421492-25.222451 26.710338-18.467607 50.766221-46.812165 65.87329-75.479065 9.385764-17.805528 14.787798-33.701566 19.258623-51.411927 5.761214-22.813588 5.338588-40.479947 5.565762-65.281819 0.135076-15.525602-6.535857-43.840484-12.05557-58.730613-18.385742-49.568952-50.28322-88.855724-96.491635-115.543549-68.12354-39.341007-157.893076-37.20332-222.227314 3.00545l-56.803727-77.617775 77.013001 7.436366 0.844228-1.213641-50.16247-69.169359-47.181579-1.612731-71.546499 0c-1.759063 12.05557-10.773368 38.440497-14.687514 51.066049-5.14109 16.58063-9.217942 33.194006-15.030321 50.79999-3.973498 12.038174-0.147356 12.384052 6.915503 22.098297 4.595668 6.319939 9.233292 12.635785 13.781888 18.993586 4.288676 5.994528 24.364921 36.269042 28.638247 37.210483l15.709797-73.176626c3.780093 2.122337 33.631982 45.235251 38.97978 52.416813 4.39817 5.904477 16.361643 20.922519 19.228947 26.39209 1.331321 2.542916-14.69877 22.463618-17.175171 26.579355-13.972223 23.229051-20.923542 40.279379-27.350928 63.7223-1.735527 6.339382-2.631944 12.274558-3.76679 18.853393-1.026376 5.962805-1.322112 15.112186-2.476401 20.36277-2.708692 12.305257 1.574868 31.781844 1.62808 43.293015-0.567935-0.061398-22.107507-8.731872-25.610284-9.909697-16.978696-5.705955-42.653449-10.30981-60.554144-10.302647-8.065699 0-26.462698-0.300852-33.235962 1.662873-2.27481 0.656963-12.406564 1.899256-15.640212 2.382257-10.880815 1.6158-29.721929 7.879458-40.542368 12.124132-45.915749 18.011212-89.027639 57.292867-111.127983 100.892875-20.268626 39.990806-25.536606 70.793346-24.701588 116.76333 0.607844 33.44267 16.121166 75.549673 35.823903 105.59292 18.182105 27.722388 44.076868 52.04433 72.981175 68.337411 36.651758 20.667715 71.146387 28.369118 112.849184 28.382421 19.644409 0.008186 42.888809-4.00522 60.706617-9.782807 8.902764-2.88163 17.232476-5.824659 25.678846-9.892301 2.702552-1.300622 22.484084-11.630898 23.323195-11.734252l33.717939 46.298466c-8.680706 8.523117-29.693276 21.934568-40.530089 29.840632-15.550161 11.351536-18.219967 3.39533 6.411013 37.323047 24.980951 34.414811 18.439978 29.971615 33.993209 18.655895 11.7056-8.516977 30.267351-20.443611 40.633443-29.863145L580.416717 960.043363 580.416717 960.043363zM661.870868 236.353033c3.13541-1.231037 31.090089 2.420119 35.253922 3.422959 10.776438 2.598174 19.567661 4.79419 29.521361 9.133008 15.566534 6.786567 32.767288 16.585747 46.929846 30.968315 30.123065 30.598902 46.927799 66.502623 46.976918 108.364033 0.040932 41.277102-13.234419 80.798211-44.076868 111.674429-13.205766 13.223163-28.708855 24.408923-45.547359 32.31294-23.387663 10.974959-37.018102 12.316513-62.136176 15.437597-5.788843 0.719384-30.156834-2.1295-35.549657-3.635807-9.496282-2.648316-19.170618-4.497431-29.475312-9.266038-17.337877-8.025791-33.253358-17.370623-46.880727-31.001061-29.584806-29.590945-46.783513-68.923766-46.809095-108.335381-0.026606-40.08188 13.787004-81.109296 44.460608-111.107517 14.936177-14.610766 26.315342-23.298636 45.166689-32.67519 10.833743-5.387707 33.570583-12.907984 44.751227-13.421684C646.298194 238.139725 660.577409 236.861616 661.870868 236.353033L661.870868 236.353033zM510.782777 631.553886c-0.094144 0.160659-4.764514 26.862811-6.4192 32.264844-2.954285 9.652847-6.604418 18.49012-11.223622 27.451212-7.123234 13.82589-21.858844 33.790594-33.911344 43.566238-15.847943 12.859889-28.641317 21.98164-47.908126 29.532617-18.023492 7.064906-47.599088 13.014408-67.453275 10.487865-40.896432-5.202489-74.714655-18.305925-104.107079-51.330062-57.504692-64.614623-51.510164-159.996994 12.610202-219.085764 29.320793-27.01733 77.337389-44.149523 115.396193-39.97341 42.726104 4.682649 72.484871 19.003819 104.013959 51.370994 17.987676 18.46249 34.271548 52.749388 37.365003 78.774111C509.759471 599.796602 513.170151 627.523083 510.782777 631.553886z" fill="#ffffff" p-id="2549"></path></svg>