<?xml version="1.0" standalone="no"?><!DOCTYPE svg PUBLIC "-//W3C//DTD SVG 1.1//EN" "http://www.w3.org/Graphics/SVG/1.1/DTD/svg11.dtd"><svg t="1746692165519" class="icon" viewBox="0 0 1024 1024" version="1.1" xmlns="http://www.w3.org/2000/svg" p-id="2436" xmlns:xlink="http://www.w3.org/1999/xlink" width="64" height="64"><path d="M512 61.44c169.65632 0 307.2 137.54368 307.2 307.2 0 159.29344-121.2416 290.26304-276.48 305.68448V737.28h102.4a30.72 30.72 0 0 1 0 61.44h-102.4v133.12a30.72 30.72 0 0 1-61.44 0V798.72h-102.4a30.72 30.72 0 0 1 0-61.44h102.4v-62.95552C326.0416 658.90304 204.8 527.93344 204.8 368.64c0-169.65632 137.54368-307.2 307.2-307.2z m0 61.44c-135.72096 0-245.76 110.03904-245.76 245.76s110.03904 245.76 245.76 245.76 245.76-110.03904 245.76-245.76S647.72096 122.88 512 122.88z" fill="#ffffff" p-id="2437"></path></svg>