<?xml version="1.0" standalone="no"?><!DOCTYPE svg PUBLIC "-//W3C//DTD SVG 1.1//EN" "http://www.w3.org/Graphics/SVG/1.1/DTD/svg11.dtd"><svg t="1745419563488" class="icon" viewBox="0 0 1024 1024" version="1.1" xmlns="http://www.w3.org/2000/svg" p-id="18827" xmlns:xlink="http://www.w3.org/1999/xlink" width="200" height="200"><path d="M513.3 63.5C261 63.5 56.6 267.8 56.6 519.8c0 232.8 174.5 424.8 399.9 452.8 12.7 2.7 28.2 4.2 46.6 4.2 5.2 0 10.2-0.3 15-0.8 250-2.6 451.9-205.9 451.9-456.3-0.1-251.9-204.5-456.2-456.7-456.2z m-67.9 841.6C261.6 873 121.8 712.7 121.8 519.8c0-27.7 2.9-54.6 8.3-80.7 16.9 18.1 56.7 17.7 66.5-9.4 17.4 10.4 40.7 12.2 40.7 33 0 68.3 2.4 141.6 64.5 142.8 1.7 0 34.6 12.5 50.3 53 5.4 14 26.8 0 50.3 0 11.7 0 0 19.7 0 62.4 0 42.5 91.7 108 91.7 108-0.4 28.1 0.7 50.9 3.1 69.1-20.6-0.3-38.1 2.4-51.8 7.1z m164.2-6.1c-2-9.9-10.9-15.4-27.1-11.1 12.9-55 19.2-85.9 46.2-109.3 39-33.8 4.6-71.5-25.1-67-23.4 3.5-8.6-29-29.5-30.8-20.9-1.7-48.2-43.3-78.3-57.6-15.9-7.6-31.6-27.9-56.2-28.8-21.8-0.8-53.6 18.4-53.6 3.6 0-47.8-4.8-82-5.8-95.6-0.8-11-7.2-3.7 22.3-3 16 0.4 8.2-32.2 24.1-33.5 15.6-1.2 52.7 14.6 62.2 8.3 8.8-5.9 64.6 146.5 64.6 25.2 0-14.4-7.5-39.4 0-53.1 29.5-53.9 57.1-97.8 54.6-104.2-1.4-3.6-30.2-6.6-53.2 1.1-7.8 2.6 2.5 14.8-8.7 17.4-41.8 9.7-78.7-11.3-65.8-30.9 13.2-20.2 61.2-8.8 65.4-49.2 2.4-23.2 4.4-50 5.8-69.9 56.3 8.8 50.1-73-33.6-81.8 169.2 2 312.6 111.3 365.2 262.9-2.7-2.4-5.8-3.9-9.3-4.3-25.3-63.2-86.7-17.5-65.9 38.3-111.6 85.8-83 145.6-46.4 179.8 19.3 18 37.7 45.1 49.7 64.5-13 38 48 22.8 78.1-41.7-38.2 132.9-145 236.6-279.7 270.7z m286.1-439.4c0.4-7.7 0.5-15.1 0.3-21.9 5.7 26.5 8.6 54 8.6 82.1 0 2.2 0 4.3-0.1 6.5-1.2-22.8-4.2-45.1-8.8-66.7z" fill="#333333" p-id="18828"></path></svg>