<?xml version="1.0" standalone="no"?><!DOCTYPE svg PUBLIC "-//W3C//DTD SVG 1.1//EN" "http://www.w3.org/Graphics/SVG/1.1/DTD/svg11.dtd"><svg t="1745429402312" class="icon" viewBox="0 0 1024 1024" version="1.1" xmlns="http://www.w3.org/2000/svg" p-id="107248" xmlns:xlink="http://www.w3.org/1999/xlink" width="200" height="200"><path d="M512 789.333333c153.173333 0 277.333333-124.16 277.333333-277.333333s-124.16-277.333333-277.333333-277.333333-277.333333 124.16-277.333333 277.333333 124.16 277.333333 277.333333 277.333333z" fill="#ffffff" p-id="107249"></path><path d="M512 128a53.333333 53.333333 0 1 0 0-106.666667 53.333333 53.333333 0 0 0 0 106.666667zM821.333333 256a53.333333 53.333333 0 1 0 0-106.666667 53.333333 53.333333 0 0 0 0 106.666667zM949.333333 565.333333a53.333333 53.333333 0 1 0 0-106.666666 53.333333 53.333333 0 0 0 0 106.666666zM821.333333 874.666667a53.333333 53.333333 0 1 0 0-106.666667 53.333333 53.333333 0 0 0 0 106.666667zM512 1002.666667a53.333333 53.333333 0 1 0 0-106.666667 53.333333 53.333333 0 0 0 0 106.666667zM202.666667 874.666667a53.333333 53.333333 0 1 0 0-106.666667 53.333333 53.333333 0 0 0 0 106.666667zM74.666667 565.333333a53.333333 53.333333 0 1 0 0-106.666666 53.333333 53.333333 0 0 0 0 106.666666zM202.666667 256a53.333333 53.333333 0 1 0 0-106.666667 53.333333 53.333333 0 0 0 0 106.666667z" fill="#ffffff" p-id="107250"></path></svg>