<?xml version="1.0" standalone="no"?><!DOCTYPE svg PUBLIC "-//W3C//DTD SVG 1.1//EN" "http://www.w3.org/Graphics/SVG/1.1/DTD/svg11.dtd"><svg t="1756112460680" class="icon" viewBox="0 0 1024 1024" version="1.1" xmlns="http://www.w3.org/2000/svg" p-id="4879" xmlns:xlink="http://www.w3.org/1999/xlink" width="64" height="64"><path d="M512 64C264.6 64 64 264.6 64 512s200.6 448 448 448 448-200.6 448-448S759.4 64 512 64z m108.1 491.9a4 4 0 0 1-4.1-4v-64a4 4 0 0 1 3.8-4A68 68 0 1 0 548 416v192a140 140 0 0 1-140 140c-77.2 0-140-62.8-140-140s60.5-137.8 135.9-139.9a4 4 0 0 1 4.1 4v64a4 4 0 0 1-3.8 4A68 68 0 1 0 476 608V416a140 140 0 0 1 140-140c77.2 0 140 62.8 140 140s-60.5 137.8-135.9 139.9z" p-id="4880" fill="#515151"></path></svg>