<?xml version="1.0" standalone="no"?><!DOCTYPE svg PUBLIC "-//W3C//DTD SVG 1.1//EN" "http://www.w3.org/Graphics/SVG/1.1/DTD/svg11.dtd"><svg t="1756172933360" class="icon" viewBox="0 0 1024 1024" version="1.1" xmlns="http://www.w3.org/2000/svg" p-id="34182" xmlns:xlink="http://www.w3.org/1999/xlink" width="64" height="64"><path d="M677.994667 576L458.666667 800 448 896H138.666667a42.666667 42.666667 0 0 1-42.666667-42.666667v-149.333333a128 128 0 0 1 128-128h453.994667z" fill="#515151" p-id="34183"></path><path d="M488 264m-200 0a200 200 0 1 0 400 0 200 200 0 1 0-400 0Z" fill="#515151" p-id="34184"></path><path d="M517.226667 816.256a16 16 0 0 1 4.608-9.749333l276.949333-277.376a32 32 0 0 1 45.12-0.149334l74.026667 73.109334a32 32 0 0 1 0.170666 45.354666L640.789333 925.44a16 16 0 0 1-9.770666 4.650667l-106.688 10.368a16 16 0 0 1-17.493334-17.493334l10.389334-106.666666z" fill="#515151" p-id="34185"></path></svg>