<?xml version="1.0" standalone="no"?><!DOCTYPE svg PUBLIC "-//W3C//DTD SVG 1.1//EN" "http://www.w3.org/Graphics/SVG/1.1/DTD/svg11.dtd"><svg t="1756112191105" class="icon" viewBox="0 0 1024 1024" version="1.1" xmlns="http://www.w3.org/2000/svg" p-id="10035" xmlns:xlink="http://www.w3.org/1999/xlink" width="64" height="64"><path d="M291.105839 439.152464a168.32 168.32 0 1 0 335.798511-23.78759 168.32 168.32 0 1 0-335.798511 23.78759Z" fill="#515151" p-id="10036"></path><path d="M744.96 694.4c-36.992-39.04-81.92-70.528-132.352-91.904-29.184 34.56-69.888 58.88-116.096 67.584l0.128 0.128-18.688 18.688 18.688 56.832-37.632 199.424-37.632-199.424 18.688-56.832-18.688-18.688 0.128-0.128c-46.208-8.704-86.912-33.152-116.096-67.584a393.8176 393.8176 0 0 0-132.48 92.16 135.808 135.808 0 0 0-37.248 93.184v113.664c0 35.712 28.928 64.512 64.512 64.512h517.76c35.712 0 64.512-28.928 64.512-64.512v-113.92c-0.128-34.56-13.568-67.968-37.504-93.184z" fill="#515151" p-id="10037"></path><path d="M772.224 282.112c26.496 55.808 10.624 120.832-34.56 158.848-9.6 8.064-8.064 23.424 2.432 30.464 7.424 4.864 17.024 3.968 23.808-1.792 57.344-49.28 77.44-132.608 43.392-204.16-35.072-73.856-116.224-110.976-192.768-93.952-7.936 1.792-13.568 8.832-14.336 16.896-1.28 13.056 10.368 23.68 23.168 20.864 59.136-13.056 121.728 15.872 148.864 72.832z" fill="#515151" p-id="10038"></path><path d="M852.224 244.096c40.448 85.12 21.504 183.296-39.808 247.936-8.32 8.832-6.784 22.912 3.328 29.568l0.128 0.128c7.68 5.12 18.176 4.352 24.448-2.432 72.32-75.904 94.464-191.616 46.976-291.84-48.384-101.888-154.752-157.824-261.12-147.456-9.088 0.896-16.128 8.448-17.024 17.408-1.28 12.16 8.96 22.4 21.248 21.248 90.368-8.704 180.736 38.784 221.824 125.44z" fill="#515151" p-id="10039"></path></svg>