<?xml version="1.0" standalone="no"?><!DOCTYPE svg PUBLIC "-//W3C//DTD SVG 1.1//EN" "http://www.w3.org/Graphics/SVG/1.1/DTD/svg11.dtd"><svg t="1745291543584" class="icon" viewBox="0 0 1024 1024" version="1.1" xmlns="http://www.w3.org/2000/svg" p-id="27157" xmlns:xlink="http://www.w3.org/1999/xlink" width="200" height="200"><path d="M799.3344 178.9952H677.9904c-18.3296 0-33.1776-14.7456-33.1776-32.8704 0-18.1248 14.848-32.8704 33.1776-32.8704h199.168c18.3296 0 33.1776 14.6432 33.1776 32.8704V343.04c0 18.1248-14.848 32.8704-33.1776 32.8704s-33.1776-14.7456-33.1776-32.8704V227.7376L541.2864 527.1552c-13.0048 12.8-33.9968 12.8-46.8992 0a32.453632 32.453632 0 0 1 0-46.3872l304.9472-301.7728z m53.9648 333.4144c0-15.6672 12.6976-28.4672 28.4672-28.4672 15.6672 0 28.4672 12.6976 28.4672 28.4672 0 219.9552-178.2784 398.2336-398.2336 398.2336-220.0576 0-398.336-178.2784-398.336-398.2336s178.2784-398.2336 398.2336-398.2336c15.6672 0 28.4672 12.6976 28.4672 28.4672 0 15.6672-12.6976 28.4672-28.4672 28.4672-188.5184 0-341.4016 152.7808-341.4016 341.4016 0 188.5184 152.7808 341.4016 341.4016 341.4016 188.5184-0.2048 341.4016-152.9856 341.4016-341.504z" p-id="27158" fill="#e6e6e6"></path></svg>