<?xml version="1.0" standalone="no"?><!DOCTYPE svg PUBLIC "-//W3C//DTD SVG 1.1//EN" "http://www.w3.org/Graphics/SVG/1.1/DTD/svg11.dtd"><svg t="1747280473702" class="icon" viewBox="0 0 1024 1024" version="1.1" xmlns="http://www.w3.org/2000/svg" p-id="21018" width="64" height="64" xmlns:xlink="http://www.w3.org/1999/xlink"><path d="M620.461059 810.267913h-9.570093l-210.542056 54.230529c-15.950156 3.190031-25.520249 19.140187-22.330218 35.090343 3.190031 15.950156 12.760125 31.900312 31.900311 31.900312h9.570094l210.542056-54.23053c15.950156-3.190031 25.520249-19.140187 22.330218-35.090343-3.190031-15.950156-15.950156-31.900312-31.900312-31.900311z m-51.040498 121.221184c-6.380062 0-12.760125 3.190031-19.140187 6.380062-12.760125 9.570093-28.71028 15.950156-41.470405 15.950156h-3.190031c-9.570093 0-15.950156-3.190031-25.52025-6.380063 0 0-3.190031-3.190031-6.380062-3.190031-6.380062-3.190031-6.380062-3.190031-9.570093-3.190031-6.380062-3.190031-9.570093-3.190031-15.950156-3.190031-15.950156 0-28.71028 9.570093-35.090343 25.520249-3.190031 12.760125 0 22.330218 9.570094 31.900312 22.330218 19.140187 51.040498 28.71028 79.750779 28.71028 25.520249 0 51.040498-9.570093 73.370716-25.520249 12.760125-9.570093 19.140187-25.520249 12.760125-38.280374 6.380062-15.950156-6.380062-25.520249-19.140187-28.71028z m181.831775-628.436137c-22.330218-41.470405-57.420561-79.750779-98.890965-102.080997-41.470405-22.330218-86.130841-35.090343-133.981309-35.090343-41.470405 0-79.750779 9.570093-118.031152 25.520249-38.280374 15.950156-73.370717 41.470405-98.890966 73.370717-51.040498 60.610592-70.180685 146.741433-57.420561 229.682243 12.760125 82.94081 57.420561 149.931464 121.221184 188.211838 6.380062 3.190031 9.570093 6.380062 15.950156 6.380062 15.950156 0 28.71028-12.760125 31.900311-25.520249 3.190031-12.760125-3.190031-28.71028-15.950155-38.280374-86.130841-51.040498-108.461059-172.261682-82.94081-255.202492 25.520249-82.94081 105.271028-137.17134 197.781931-137.17134 38.280374 0 76.560748 9.570093 108.461059 28.710281 44.660436 25.520249 76.560748 66.990654 89.320872 121.221183 12.760125 54.23053 6.380062 114.841121-22.330218 162.691589-12.760125 19.140187-25.520249 35.090343-41.470405 54.23053-9.570093 9.570093-19.140187 22.330218-28.71028 35.090342-15.950156 19.140187-19.140187 41.470405-25.520249 60.610592l-3.190031 9.570094-191.401869 51.040498c-15.950156 3.190031-25.520249 19.140187-22.330219 35.090343 3.190031 15.950156 12.760125 31.900312 31.900312 31.900311h9.570093l149.931465-41.470405c6.380062 0 9.570093-3.190031 15.950155-3.190031 41.470405-9.570093 73.370717-19.140187 76.560748-76.560747 0-22.330218 19.140187-41.470405 35.090343-57.420561 3.190031-3.190031 6.380062-9.570093 12.760124-12.760125 19.140187-22.330218 41.470405-54.23053 57.420561-89.320872 35.090343-76.560748 28.71028-162.691589-12.760125-239.252336z m-571.015576 159.501557c0-19.140187-15.950156-35.090343-35.090343-35.090343h-63.800623c-19.140187 0-35.090343 15.950156-35.090342 35.090343s15.950156 35.090343 35.090342 35.090343h63.800623c19.140187-3.190031 35.090343-15.950156 35.090343-35.090343z m762.417446-35.090343h-63.800623c-19.140187 0-35.090343 15.950156-35.090343 35.090343s15.950156 35.090343 35.090343 35.090343h63.800623c19.140187 0 35.090343-15.950156 35.090342-35.090343-3.190031-19.140187-15.950156-35.090343-35.090342-35.090343zM231.277259 226.492212c15.950156 12.760125 35.090343 12.760125 47.850467-3.190031 9.570093-12.760125 9.570093-31.900312 0-44.660436L234.46729 133.981308c-15.950156-12.760125-38.280374-9.570093-47.850468 3.190032-9.570093 12.760125-9.570093 31.900312 0 44.660436l44.660437 44.660436z m564.635514 468.934579c-12.760125-12.760125-35.090343-9.570093-47.850468 3.190031-9.570093 12.760125-9.570093 31.900312 0 44.660437l44.660436 44.660436c12.760125 12.760125 35.090343 9.570093 47.850468-3.190031 9.570093-12.760125 9.570093-31.900312 0-44.660437l-44.660436-44.660436zM512 137.17134c19.140187 0 35.090343-15.950156 35.090343-35.090343v-63.800623c0-19.140187-15.950156-31.900312-35.090343-31.900312-15.950156 0-31.900312 15.950156-31.900312 31.900312v63.800623c0 19.140187 15.950156 35.090343 31.900312 35.090343zM279.127726 695.426791c-12.760125-12.760125-35.090343-12.760125-47.850467 0l-44.660437 44.660436c-12.760125 12.760125-12.760125 35.090343 0 47.850468s35.090343 12.760125 47.850468 0l44.660436-44.660436c12.760125-12.760125 12.760125-35.090343 0-47.850468zM748.062305 226.492212c12.760125 12.760125 35.090343 12.760125 47.850468 0l44.660436-44.660436c12.760125-12.760125 12.760125-35.090343 0-47.850468-12.760125-12.760125-35.090343-12.760125-47.850468 0l-44.660436 44.660437c-12.760125 15.950156-12.760125 35.090343 0 47.850467z" p-id="21019" fill="#2c2c2c"></path></svg>