<?xml version="1.0" standalone="no"?><!DOCTYPE svg PUBLIC "-//W3C//DTD SVG 1.1//EN" "http://www.w3.org/Graphics/SVG/1.1/DTD/svg11.dtd"><svg t="1746669616115" class="icon" viewBox="0 0 1024 1024" version="1.1" xmlns="http://www.w3.org/2000/svg" p-id="15219" width="64" height="64" xmlns:xlink="http://www.w3.org/1999/xlink"><path d="M833.28 137.386667l85.333333 85.333333a32 32 0 0 1-45.226666 45.226667l-30.72-30.72v200.106666a32 32 0 0 1-64 0V237.226667l-30.72 30.72a32 32 0 1 1-45.226667-45.226667l85.333333-85.333333a31.914667 31.914667 0 0 1 22.528-9.386667h0.170667a31.914667 31.914667 0 0 1 22.528 9.386667zM85.333333 245.333333A32 32 0 0 1 117.333333 213.333333h362.666667a32 32 0 0 1 0 64h-362.666667A32 32 0 0 1 85.333333 245.333333zM85.333333 522.666667a32 32 0 0 1 32-32h490.666667a32 32 0 0 1 0 64H117.333333a32 32 0 0 1-32-32zM117.333333 768a32 32 0 0 0 0 64h362.666667a32 32 0 0 0 0-64h-362.666667zM778.666667 786.773333v-200.106666a32 32 0 0 1 64 0v200.106666l30.72-30.72a32 32 0 1 1 45.226666 45.226667l-85.333333 85.333333a31.914667 31.914667 0 0 1-45.226667 0l-85.333333-85.333333a32 32 0 1 1 45.226667-45.226667l30.72 30.72z" fill="#ffffff" p-id="15220"></path></svg>