<?xml version="1.0" standalone="no"?><!DOCTYPE svg PUBLIC "-//W3C//DTD SVG 1.1//EN" "http://www.w3.org/Graphics/SVG/1.1/DTD/svg11.dtd"><svg t="1745475875690" class="icon" viewBox="0 0 1137 1024" version="1.1" xmlns="http://www.w3.org/2000/svg" p-id="51889" xmlns:xlink="http://www.w3.org/1999/xlink" width="222.0703125" height="200"><path d="M847.872 182.613333c165.376 165.376 167.424 433.152 6.200889 601.088l114.062222 112.298667a39.253333 39.253333 0 1 1-55.182222 56.035556l-118.556445-116.565334c-167.765333 120.376889-403.342222 105.301333-553.984-45.340444-167.480889-167.480889-167.480889-440.035556 0-607.573334C407.893333 15.075556 680.391111 15.075556 847.872 182.613333z m-551.822222 55.580445a351.288889 351.288889 0 0 0 0 496.241778 351.288889 351.288889 0 0 0 496.184889 0 351.175111 351.175111 0 0 0 0.113777-496.241778 351.402667 351.402667 0 0 0-496.298666 0z" fill="#333333" p-id="51890"></path></svg>