<?xml version="1.0" standalone="no"?><!DOCTYPE svg PUBLIC "-//W3C//DTD SVG 1.1//EN" "http://www.w3.org/Graphics/SVG/1.1/DTD/svg11.dtd"><svg t="1745429005418" class="icon" viewBox="0 0 1024 1024" version="1.1" xmlns="http://www.w3.org/2000/svg" p-id="70580" xmlns:xlink="http://www.w3.org/1999/xlink" width="200" height="200"><path d="M512 938.688a42.688 42.688 0 0 1-35.072-18.432l-192-277.312A42.56 42.56 0 0 1 320 576l384 0a42.752 42.752 0 0 1 35.072 66.944l-192 277.312a42.688 42.688 0 0 1-35.072 18.432" fill="#e6e6e6" p-id="70581"></path><path d="M704 448L320 448a42.752 42.752 0 0 1-35.072-66.944l192-277.312c16-23.04 54.208-23.03999999 70.144 0l192 277.312A42.56 42.56 0 0 1 704 448" fill="#707070" p-id="70582"></path></svg>